<svg width="292" height="95" viewBox="0 0 292 95" fill="none" xmlns="http://www.w3.org/2000/svg">
<path d="M54.516 77C52.5907 77 50.8427 76.5187 49.272 75.556C47.7013 74.5933 46.4347 73.3267 45.472 71.756C44.5093 70.1853 44.028 68.4373 44.028 66.512V19.392H53.984V32.92H71.16V42.876H53.984V66.132C53.984 66.3853 54.06 66.6133 54.212 66.816C54.4147 66.968 54.6427 67.044 54.896 67.044H71.16V77H54.516ZM89.3632 77C87.3872 77 85.6139 76.5187 84.0432 75.556C82.4725 74.5933 81.2059 73.3267 80.2432 71.756C79.3312 70.1853 78.8752 68.4373 78.8752 66.512V43.408C78.8752 41.4827 79.3312 39.7347 80.2432 38.164C81.2059 36.5933 82.4725 35.3267 84.0432 34.364C85.6139 33.4013 87.3872 32.92 89.3632 32.92H113.759V18.48H123.715V77H89.3632ZM89.8192 67.044H112.847C113.101 67.044 113.303 66.968 113.455 66.816C113.658 66.6133 113.759 66.3853 113.759 66.132V43.788C113.759 43.5347 113.658 43.332 113.455 43.18C113.303 42.9773 113.101 42.876 112.847 42.876H89.8192C89.5659 42.876 89.3379 42.9773 89.1352 43.18C88.9832 43.332 88.9072 43.5347 88.9072 43.788V66.132C88.9072 66.3853 88.9832 66.6133 89.1352 66.816C89.3379 66.968 89.5659 67.044 89.8192 67.044Z" fill="#900B52"/>
<path d="M159.062 35C159.062 36.3398 158.953 37.4609 158.734 38.3633C158.516 39.2565 158.146 39.972 157.627 40.5098C157.117 41.0475 156.442 41.4303 155.604 41.6582C154.765 41.8861 153.73 42 152.5 42C151.306 42 150.303 41.9089 149.492 41.7266C148.681 41.5443 148.025 41.2344 147.523 40.7969C147.022 40.3594 146.662 39.776 146.443 39.0469C146.225 38.3177 146.115 37.4062 146.115 36.3125V28.4102H142.875V26.25H146.115V21.9434H148.74V26.25H158.625V28.4102H148.74V36.3125C148.74 37.1875 148.804 37.862 148.932 38.3359C149.068 38.8099 149.283 39.1562 149.574 39.375C149.866 39.5938 150.249 39.7214 150.723 39.7578C151.206 39.7943 151.794 39.8125 152.486 39.8125C153.033 39.8125 153.521 39.8034 153.949 39.7852C154.387 39.7669 154.765 39.7122 155.084 39.6211C155.412 39.5208 155.69 39.375 155.918 39.1836C156.146 38.9831 156.328 38.7051 156.465 38.3496C156.611 37.9941 156.715 37.5475 156.779 37.0098C156.843 36.4629 156.875 35.793 156.875 35H159.062ZM177.649 39.8398C177.622 39.9492 177.417 40.2227 177.034 40.6602C176.76 40.9883 176.396 41.2799 175.94 41.5352C175.484 41.7812 174.874 41.9727 174.108 42.1094C173.352 42.2552 172.354 42.3281 171.114 42.3281C169.464 42.3281 168.056 42.2415 166.889 42.0684C165.723 41.9043 164.77 41.6491 164.032 41.3027C163.294 40.9473 162.751 40.4961 162.405 39.9492C162.068 39.4023 161.899 38.7507 161.899 37.9941C161.899 37.2012 161.99 36.5312 162.173 35.9844C162.364 35.4284 162.637 34.9635 162.993 34.5898C163.357 34.2161 163.795 33.9245 164.305 33.7148C164.816 33.5052 165.395 33.3457 166.042 33.2363C166.698 33.127 167.413 33.0586 168.188 33.0312C168.963 33.0039 169.788 32.9902 170.663 32.9902C171.912 32.9902 172.955 33.0449 173.794 33.1543C174.632 33.2546 175.316 33.3867 175.844 33.5508C176.382 33.7057 176.788 33.8743 177.061 34.0566C177.335 34.2389 177.531 34.4076 177.649 34.5625C177.649 33.5417 177.604 32.6712 177.512 31.9512C177.43 31.2311 177.289 30.6296 177.089 30.1465C176.897 29.6634 176.647 29.2806 176.337 28.998C176.027 28.7064 175.644 28.4876 175.188 28.3418C174.742 28.196 174.218 28.1048 173.616 28.0684C173.014 28.0228 172.326 28 171.551 28C170.348 28 169.35 28.0319 168.557 28.0957C167.764 28.1504 167.135 28.2643 166.671 28.4375C166.206 28.6107 165.878 28.8522 165.686 29.1621C165.495 29.4629 165.399 29.8594 165.399 30.3516H162.774C162.774 29.5221 162.92 28.8203 163.212 28.2461C163.512 27.6719 164.005 27.207 164.688 26.8516C165.381 26.487 166.288 26.2227 167.409 26.0586C168.53 25.8945 169.911 25.8125 171.551 25.8125C173.156 25.8125 174.514 25.9447 175.626 26.209C176.738 26.4733 177.635 26.9382 178.319 27.6035C179.012 28.2689 179.509 29.1667 179.809 30.2969C180.119 31.418 180.274 32.8398 180.274 34.5625V42H177.649V39.8398ZM171.551 40.25C172.709 40.25 173.675 40.1953 174.45 40.0859C175.234 39.9766 175.863 39.8125 176.337 39.5938C176.811 39.375 177.148 39.1016 177.348 38.7734C177.549 38.4453 177.649 38.0625 177.649 37.625C177.649 37.1875 177.531 36.8184 177.294 36.5176C177.066 36.2077 176.678 35.957 176.132 35.7656C175.594 35.5742 174.878 35.4375 173.985 35.3555C173.092 35.2643 171.989 35.2188 170.676 35.2188C169.364 35.2188 168.302 35.2415 167.491 35.2871C166.689 35.3327 166.069 35.4375 165.632 35.6016C165.194 35.7656 164.898 36.0072 164.743 36.3262C164.597 36.6452 164.524 37.0781 164.524 37.625C164.524 38.1719 164.602 38.6185 164.757 38.9648C164.921 39.3021 165.249 39.5664 165.741 39.7578C166.233 39.9492 166.94 40.0814 167.86 40.1543C168.79 40.2181 170.02 40.25 171.551 40.25ZM183.63 34.1523C183.63 33.0586 183.685 32.0924 183.794 31.2539C183.904 30.4154 184.095 29.6862 184.369 29.0664C184.651 28.4466 185.025 27.9316 185.49 27.5215C185.964 27.1022 186.556 26.765 187.267 26.5098C187.987 26.2546 188.839 26.0723 189.824 25.9629C190.808 25.8535 191.956 25.7988 193.269 25.7988C195.019 25.7988 196.459 25.9082 197.589 26.127C198.72 26.3366 199.613 26.6647 200.269 27.1113C200.925 27.5488 201.381 28.1094 201.636 28.793C201.891 29.4674 202.019 30.2741 202.019 31.2129H199.394C199.394 30.8757 199.385 30.5612 199.367 30.2695C199.348 29.9779 199.28 29.7135 199.162 29.4766C199.052 29.2396 198.874 29.0299 198.628 28.8477C198.382 28.6562 198.031 28.4967 197.576 28.3691C197.12 28.2415 196.541 28.1458 195.839 28.082C195.147 28.0182 194.29 27.9863 193.269 27.9863C192.102 27.9863 191.118 28.0273 190.316 28.1094C189.523 28.1914 188.867 28.3281 188.347 28.5195C187.828 28.7018 187.427 28.9525 187.144 29.2715C186.861 29.5814 186.656 29.9642 186.529 30.4199C186.401 30.8757 186.324 31.4134 186.296 32.0332C186.278 32.6439 186.269 33.3503 186.269 34.1523C186.269 34.9362 186.278 35.6335 186.296 36.2441C186.324 36.8457 186.401 37.3743 186.529 37.8301C186.656 38.2767 186.861 38.6549 187.144 38.9648C187.427 39.2747 187.828 39.5254 188.347 39.7168C188.867 39.9082 189.523 40.0449 190.316 40.127C191.118 40.209 192.102 40.25 193.269 40.25C194.29 40.25 195.147 40.2135 195.839 40.1406C196.541 40.0677 197.12 39.9629 197.576 39.8262C198.031 39.6895 198.382 39.5208 198.628 39.3203C198.874 39.1198 199.052 38.8919 199.162 38.6367C199.28 38.3724 199.348 38.0853 199.367 37.7754C199.385 37.4564 199.394 37.1146 199.394 36.75H202.019C202.019 37.707 201.891 38.5365 201.636 39.2383C201.381 39.9401 200.925 40.5189 200.269 40.9746C199.613 41.4212 198.72 41.7539 197.589 41.9727C196.459 42.1914 195.019 42.3008 193.269 42.3008C191.956 42.3008 190.808 42.2461 189.824 42.1367C188.839 42.0273 187.987 41.8496 187.267 41.6035C186.556 41.3483 185.964 41.0156 185.49 40.6055C185.025 40.1953 184.651 39.6895 184.369 39.0879C184.095 38.4863 183.904 37.7799 183.794 36.9688C183.685 36.1484 183.63 35.2096 183.63 34.1523ZM221.563 42V33.1133C221.563 32.1654 221.49 31.3678 221.344 30.7207C221.198 30.0645 220.906 29.5358 220.469 29.1348C220.031 28.7337 219.412 28.4466 218.61 28.2734C217.807 28.0911 216.75 28 215.438 28C214.016 28 212.849 28.1048 211.938 28.3145C211.035 28.515 210.324 28.8021 209.805 29.1758C209.285 29.5404 208.925 29.9824 208.725 30.502C208.533 31.0215 208.438 31.6003 208.438 32.2383V42H205.813V21H208.438V28.7383C208.62 28.3099 208.88 27.9408 209.217 27.6309C209.554 27.321 209.942 27.0566 210.379 26.8379C210.826 26.6191 211.304 26.446 211.815 26.3184C212.325 26.1816 212.84 26.0768 213.36 26.0039C213.888 25.931 214.403 25.8809 214.904 25.8535C215.415 25.8262 215.884 25.8125 216.313 25.8125C217.479 25.8125 218.482 25.8854 219.32 26.0312C220.168 26.168 220.884 26.3776 221.467 26.6602C222.059 26.9336 222.533 27.2754 222.889 27.6855C223.244 28.0957 223.518 28.5742 223.709 29.1211C223.91 29.6589 224.042 30.265 224.106 30.9395C224.169 31.6048 224.201 32.3294 224.201 33.1133L224.188 42H221.563ZM235.433 42L227.12 26.25H230.183L237.183 40.25L243.745 26.25H246.808L238.933 42L238.495 42.875C238.276 43.3125 238.058 43.7227 237.839 44.1055C237.629 44.4974 237.388 44.8529 237.114 45.1719C236.841 45.5 236.517 45.7917 236.143 46.0469C235.77 46.3021 235.309 46.5163 234.763 46.6895C234.225 46.8717 233.582 47.0085 232.835 47.0996C232.087 47.1999 231.203 47.25 230.183 47.25V45.0625C231.058 45.0625 231.796 45.026 232.397 44.9531C232.999 44.8893 233.5 44.7891 233.901 44.6523C234.311 44.5247 234.64 44.3698 234.886 44.1875C235.132 44.0052 235.337 43.8001 235.501 43.5723C235.665 43.3444 235.802 43.0983 235.911 42.834C236.03 42.5697 236.162 42.2917 236.308 42H235.433ZM248.4 34.0156C248.4 32.4023 248.573 31.0671 248.92 30.0098C249.266 28.9525 249.822 28.1139 250.588 27.4941C251.353 26.8743 252.347 26.4414 253.568 26.1953C254.789 25.9401 256.275 25.8125 258.025 25.8125C259.775 25.8125 261.261 25.9401 262.482 26.1953C263.703 26.4414 264.697 26.8743 265.463 27.4941C266.228 28.1139 266.784 28.9525 267.13 30.0098C267.477 31.0671 267.65 32.4023 267.65 34.0156C267.65 35.6289 267.477 36.9688 267.13 38.0352C266.784 39.1016 266.228 39.9492 265.463 40.5781C264.697 41.207 263.703 41.6536 262.482 41.918C261.261 42.1732 259.775 42.3008 258.025 42.3008C256.275 42.3008 254.789 42.1732 253.568 41.918C252.347 41.6536 251.353 41.207 250.588 40.5781C249.822 39.9492 249.266 39.1016 248.92 38.0352C248.573 36.9688 248.4 35.6289 248.4 34.0156ZM251.025 34.0156C251.025 34.8906 251.057 35.6517 251.121 36.2988C251.185 36.946 251.303 37.502 251.476 37.9668C251.658 38.4316 251.909 38.8099 252.228 39.1016C252.547 39.3932 252.966 39.6257 253.486 39.7988C254.005 39.972 254.634 40.0905 255.373 40.1543C256.12 40.2181 257.004 40.25 258.025 40.25C258.9 40.25 259.679 40.2318 260.363 40.1953C261.056 40.1497 261.657 40.054 262.168 39.9082C262.687 39.7624 263.129 39.5573 263.494 39.293C263.858 39.0195 264.15 38.6504 264.369 38.1855C264.597 37.7207 264.761 37.151 264.861 36.4766C264.97 35.793 265.025 34.9727 265.025 34.0156C265.025 33.0768 264.97 32.2793 264.861 31.623C264.761 30.9577 264.597 30.4017 264.369 29.9551C264.15 29.5085 263.858 29.1576 263.494 28.9023C263.129 28.638 262.687 28.4421 262.168 28.3145C261.657 28.1777 261.056 28.0911 260.363 28.0547C259.679 28.0182 258.9 28 258.025 28C257.15 28 256.366 28.0182 255.673 28.0547C254.99 28.0911 254.388 28.1777 253.869 28.3145C253.358 28.4421 252.921 28.638 252.556 28.9023C252.192 29.1576 251.895 29.5085 251.668 29.9551C251.449 30.4017 251.285 30.9577 251.175 31.623C251.075 32.2793 251.025 33.0768 251.025 34.0156ZM286.743 42V33.25C286.743 32.2747 286.67 31.4544 286.524 30.7891C286.378 30.1146 286.086 29.5723 285.649 29.1621C285.211 28.752 284.591 28.4557 283.789 28.2734C282.987 28.0911 281.93 28 280.618 28C279.196 28 278.029 28.1048 277.118 28.3145C276.215 28.5241 275.504 28.8203 274.985 29.2031C274.465 29.5859 274.105 30.0462 273.905 30.584C273.713 31.1217 273.618 31.7188 273.618 32.375V42H270.993V26.25H273.618V28.875C273.809 28.4284 274.082 28.0456 274.438 27.7266C274.793 27.3984 275.194 27.1204 275.641 26.8926C276.088 26.6647 276.571 26.4824 277.09 26.3457C277.61 26.1999 278.129 26.0905 278.649 26.0176C279.168 25.9355 279.67 25.8809 280.153 25.8535C280.645 25.8262 281.091 25.8125 281.493 25.8125C282.659 25.8125 283.662 25.8854 284.5 26.0312C285.348 26.1771 286.063 26.3913 286.647 26.6738C287.239 26.9564 287.713 27.3073 288.069 27.7266C288.424 28.1458 288.698 28.6335 288.889 29.1895C289.09 29.7363 289.222 30.3516 289.285 31.0352C289.349 31.7096 289.381 32.4479 289.381 33.25L289.368 42H286.743ZM152.938 77.3008C151.188 77.3008 149.702 77.1732 148.48 76.918C147.259 76.6628 146.266 76.2253 145.5 75.6055C144.734 74.9857 144.178 74.1517 143.832 73.1035C143.486 72.0553 143.312 70.7383 143.312 69.1523C143.312 67.5117 143.486 66.1536 143.832 65.0781C144.178 64.0026 144.734 63.1504 145.5 62.5215C146.266 61.8926 147.259 61.4505 148.48 61.1953C149.702 60.9401 151.188 60.8125 152.938 60.8125C154.177 60.8125 155.216 60.8763 156.055 61.0039C156.893 61.1315 157.577 61.291 158.105 61.4824C158.643 61.6738 159.049 61.8835 159.322 62.1113C159.605 62.3301 159.81 62.5352 159.938 62.7266V56H162.562V77H159.938V74.6621C159.938 74.6621 159.719 74.9219 159.281 75.4414C158.898 75.8151 158.475 76.1159 158.01 76.3438C157.545 76.5716 156.893 76.7904 156.055 77C155.216 77.2005 154.177 77.3008 152.938 77.3008ZM152.938 75.25C153.812 75.25 154.592 75.2318 155.275 75.1953C155.959 75.1497 156.561 75.0586 157.08 74.9219C157.6 74.7852 158.037 74.5846 158.393 74.3203C158.757 74.0469 159.053 73.6868 159.281 73.2402C159.509 72.7936 159.673 72.2422 159.773 71.5859C159.883 70.9206 159.938 70.123 159.938 69.1934C159.938 68.2272 159.883 67.4069 159.773 66.7324C159.673 66.0488 159.509 65.4792 159.281 65.0234C159.053 64.5586 158.757 64.194 158.393 63.9297C158.037 63.6654 157.6 63.4648 157.08 63.3281C156.561 63.1823 155.959 63.0911 155.275 63.0547C154.592 63.0182 153.812 63 152.938 63C151.917 63 151.033 63.0319 150.285 63.0957C149.547 63.1595 148.918 63.2734 148.398 63.4375C147.879 63.6016 147.455 63.8294 147.127 64.1211C146.808 64.4128 146.557 64.7865 146.375 65.2422C146.202 65.6979 146.083 66.2493 146.02 66.8965C145.965 67.5345 145.938 68.2865 145.938 69.1523C145.938 70.0091 145.965 70.7565 146.02 71.3945C146.083 72.0234 146.202 72.5658 146.375 73.0215C146.557 73.4681 146.808 73.8372 147.127 74.1289C147.455 74.4206 147.879 74.6484 148.398 74.8125C148.918 74.9766 149.547 75.0905 150.285 75.1543C151.033 75.2181 151.917 75.25 152.938 75.25ZM182.024 74.8398C181.997 74.9492 181.792 75.2227 181.409 75.6602C181.135 75.9883 180.771 76.2799 180.315 76.5352C179.859 76.7812 179.249 76.9727 178.483 77.1094C177.727 77.2552 176.729 77.3281 175.489 77.3281C173.839 77.3281 172.431 77.2415 171.264 77.0684C170.098 76.9043 169.145 76.6491 168.407 76.3027C167.669 75.9473 167.126 75.4961 166.78 74.9492C166.443 74.4023 166.274 73.7507 166.274 72.9941C166.274 72.2012 166.365 71.5312 166.548 70.9844C166.739 70.4284 167.012 69.9635 167.368 69.5898C167.732 69.2161 168.17 68.9245 168.68 68.7148C169.191 68.5052 169.77 68.3457 170.417 68.2363C171.073 68.127 171.788 68.0586 172.563 68.0312C173.338 68.0039 174.163 67.9902 175.038 67.9902C176.287 67.9902 177.33 68.0449 178.169 68.1543C179.007 68.2546 179.691 68.3867 180.219 68.5508C180.757 68.7057 181.163 68.8743 181.436 69.0566C181.71 69.2389 181.906 69.4076 182.024 69.5625C182.024 68.5417 181.979 67.6712 181.887 66.9512C181.805 66.2311 181.664 65.6296 181.464 65.1465C181.272 64.6634 181.022 64.2806 180.712 63.998C180.402 63.7064 180.019 63.4876 179.563 63.3418C179.117 63.196 178.593 63.1048 177.991 63.0684C177.389 63.0228 176.701 63 175.926 63C174.723 63 173.725 63.0319 172.932 63.0957C172.139 63.1504 171.51 63.2643 171.046 63.4375C170.581 63.6107 170.253 63.8522 170.061 64.1621C169.87 64.4629 169.774 64.8594 169.774 65.3516H167.149C167.149 64.5221 167.295 63.8203 167.587 63.2461C167.887 62.6719 168.38 62.207 169.063 61.8516C169.756 61.487 170.663 61.2227 171.784 61.0586C172.905 60.8945 174.286 60.8125 175.926 60.8125C177.531 60.8125 178.889 60.9447 180.001 61.209C181.113 61.4733 182.01 61.9382 182.694 62.6035C183.387 63.2689 183.884 64.1667 184.184 65.2969C184.494 66.418 184.649 67.8398 184.649 69.5625V77H182.024V74.8398ZM175.926 75.25C177.084 75.25 178.05 75.1953 178.825 75.0859C179.609 74.9766 180.238 74.8125 180.712 74.5938C181.186 74.375 181.523 74.1016 181.723 73.7734C181.924 73.4453 182.024 73.0625 182.024 72.625C182.024 72.1875 181.906 71.8184 181.669 71.5176C181.441 71.2077 181.053 70.957 180.507 70.7656C179.969 70.5742 179.253 70.4375 178.36 70.3555C177.467 70.2643 176.364 70.2188 175.051 70.2188C173.739 70.2188 172.677 70.2415 171.866 70.2871C171.064 70.3327 170.444 70.4375 170.007 70.6016C169.569 70.7656 169.273 71.0072 169.118 71.3262C168.972 71.6452 168.899 72.0781 168.899 72.625C168.899 73.1719 168.977 73.6185 169.132 73.9648C169.296 74.3021 169.624 74.5664 170.116 74.7578C170.608 74.9492 171.315 75.0814 172.235 75.1543C173.165 75.2181 174.395 75.25 175.926 75.25ZM203.755 70C203.755 71.3398 203.646 72.4609 203.427 73.3633C203.208 74.2565 202.839 74.972 202.32 75.5098C201.809 76.0475 201.135 76.4303 200.296 76.6582C199.458 76.8861 198.423 77 197.193 77C195.999 77 194.996 76.9089 194.185 76.7266C193.374 76.5443 192.718 76.2344 192.216 75.7969C191.715 75.3594 191.355 74.776 191.136 74.0469C190.917 73.3177 190.808 72.4062 190.808 71.3125V63.4102H187.568V61.25H190.808V56.9434H193.433V61.25H203.318V63.4102H193.433V71.3125C193.433 72.1875 193.497 72.862 193.624 73.3359C193.761 73.8099 193.975 74.1562 194.267 74.375C194.559 74.5938 194.942 74.7214 195.415 74.7578C195.899 74.7943 196.486 74.8125 197.179 74.8125C197.726 74.8125 198.214 74.8034 198.642 74.7852C199.08 74.7669 199.458 74.7122 199.777 74.6211C200.105 74.5208 200.383 74.375 200.611 74.1836C200.839 73.9831 201.021 73.7051 201.158 73.3496C201.303 72.9941 201.408 72.5475 201.472 72.0098C201.536 71.4629 201.568 70.793 201.568 70H203.755ZM222.342 74.8398C222.315 74.9492 222.11 75.2227 221.727 75.6602C221.453 75.9883 221.089 76.2799 220.633 76.5352C220.177 76.7812 219.567 76.9727 218.801 77.1094C218.044 77.2552 217.046 77.3281 215.807 77.3281C214.157 77.3281 212.749 77.2415 211.582 77.0684C210.416 76.9043 209.463 76.6491 208.725 76.3027C207.986 75.9473 207.444 75.4961 207.098 74.9492C206.761 74.4023 206.592 73.7507 206.592 72.9941C206.592 72.2012 206.683 71.5312 206.865 70.9844C207.057 70.4284 207.33 69.9635 207.686 69.5898C208.05 69.2161 208.488 68.9245 208.998 68.7148C209.509 68.5052 210.087 68.3457 210.735 68.2363C211.391 68.127 212.106 68.0586 212.881 68.0312C213.656 68.0039 214.481 67.9902 215.356 67.9902C216.604 67.9902 217.648 68.0449 218.486 68.1543C219.325 68.2546 220.009 68.3867 220.537 68.5508C221.075 68.7057 221.481 68.8743 221.754 69.0566C222.028 69.2389 222.223 69.4076 222.342 69.5625C222.342 68.5417 222.296 67.6712 222.205 66.9512C222.123 66.2311 221.982 65.6296 221.781 65.1465C221.59 64.6634 221.339 64.2806 221.029 63.998C220.72 63.7064 220.337 63.4876 219.881 63.3418C219.434 63.196 218.91 63.1048 218.309 63.0684C217.707 63.0228 217.019 63 216.244 63C215.041 63 214.043 63.0319 213.25 63.0957C212.457 63.1504 211.828 63.2643 211.363 63.4375C210.899 63.6107 210.57 63.8522 210.379 64.1621C210.188 64.4629 210.092 64.8594 210.092 65.3516H207.467C207.467 64.5221 207.613 63.8203 207.904 63.2461C208.205 62.6719 208.697 62.207 209.381 61.8516C210.074 61.487 210.981 61.2227 212.102 61.0586C213.223 60.8945 214.604 60.8125 216.244 60.8125C217.848 60.8125 219.207 60.9447 220.319 61.209C221.43 61.4733 222.328 61.9382 223.012 62.6035C223.705 63.2689 224.201 64.1667 224.502 65.2969C224.812 66.418 224.967 67.8398 224.967 69.5625V77H222.342V74.8398ZM216.244 75.25C217.402 75.25 218.368 75.1953 219.143 75.0859C219.927 74.9766 220.555 74.8125 221.029 74.5938C221.503 74.375 221.841 74.1016 222.041 73.7734C222.242 73.4453 222.342 73.0625 222.342 72.625C222.342 72.1875 222.223 71.8184 221.986 71.5176C221.759 71.2077 221.371 70.957 220.824 70.7656C220.287 70.5742 219.571 70.4375 218.678 70.3555C217.785 70.2643 216.682 70.2188 215.369 70.2188C214.057 70.2188 212.995 70.2415 212.184 70.2871C211.382 70.3327 210.762 70.4375 210.324 70.6016C209.887 70.7656 209.591 71.0072 209.436 71.3262C209.29 71.6452 209.217 72.0781 209.217 72.625C209.217 73.1719 209.294 73.6185 209.449 73.9648C209.613 74.3021 209.942 74.5664 210.434 74.7578C210.926 74.9492 211.632 75.0814 212.553 75.1543C213.483 75.2181 214.713 75.25 216.244 75.25Z" fill="#900B52"/>
<path d="M4 22L30 48L4 74" stroke="#900B52" stroke-width="10"/>
</svg>
